<?xml version="1.0" encoding="utf-8"?>
<!-- Generator: Adobe Illustrator 27.3.1, SVG Export Plug-In . SVG Version: 6.00 Build 0)  -->
<svg version="1.1" id="Warstwa_1" xmlns="http://www.w3.org/2000/svg" xmlns:xlink="http://www.w3.org/1999/xlink" x="0px" y="0px"
	 viewBox="0 0 1000 1000" style="enable-background:new 0 0 1000 1000;" xml:space="preserve">
<style type="text/css">
	.st0{fill:#FFFFFF;}
	.st1{fill:#DFAAF7;}
	.st2{fill:#752CAF;}
	.st3{fill:#FF0000;}
</style>
<g>
	<path class="st0" d="M651.72,321.8c-32.95-21.24-70.02-36.21-110.62-40.36c89.46,34.45,164.55,98.04,213.48,179.16
		c-4.63-26.2-13.91-47.75-23.1-63.48C708.1,368.87,681.28,343.58,651.72,321.8z"/>
	<path class="st0" d="M742.23,537.73c5.41-4.01,9.53-9.48,12.1-17.4C701.3,399.82,590.6,310.3,457.35,286.84
		c-14.44,3.19-28.44,7.53-41.93,12.85C563.65,310.35,688.71,405.8,742.23,537.73z"/>
	<path class="st0" d="M387.75,344.24c139.24,0,259.02,84.95,310.24,205.74c6.57-0.85,12.64-1.67,18.21-2.68
		c-52.91-129.48-180.16-220.99-328.45-220.99c-8.38,0-16.66,0.4-24.9,0.97c-9.58,6.44-18.71,13.46-27.35,21.02
		C352.53,345.65,369.98,344.24,387.75,344.24z"/>
	<path class="st0" d="M387.75,371.97c-30.06,0-59.11,4.4-86.61,12.44c-6.21,7.88-11.94,16.14-17.24,24.7
		c32.28-12.37,67.27-19.22,103.85-19.22c124.17,0,230.38,78.17,272.14,187.87c4.67-7.31,8.17-14.79,10.18-22.22
		C621.87,447.5,513.5,371.97,387.75,371.97z"/>
	<path class="st0" d="M387.75,417.63c-44.81,0-87.03,11.28-124.01,31.1c-3.46,8.51-6.48,17.25-9.07,26.19
		c38.37-24.86,84.05-39.37,133.08-39.37c112.59,0,207.66,76.23,236.47,179.77c5.21-3.97,10.23-8.26,14.97-12.82
		C605.7,495.5,505.66,417.63,387.75,417.63z"/>
	<path class="st0" d="M387.75,463.28c-53.96,0-103.35,19.77-141.43,52.4c-0.18,1.4-0.42,2.79-0.57,4.19
		c-0.08,0.74-0.16,1.39-0.16,2.12c-0.08,1.96-0.16,4-0.16,5.96c0,4.29,0.39,8.22,0.98,11.98c36.19-36.26,86.2-58.73,141.35-58.73
		c95.39,0,175.33,67.2,195.08,156.74c5.43-1.75,11.06-4.14,16.76-7.04C576.9,534.93,490.56,463.28,387.75,463.28z"/>
	<path class="st0" d="M387.75,508.94c-51.5,0-97.66,22.85-129.22,58.82c3.67,4.59,7.96,8.73,12.77,12.55
		c28.29-32.66,69.95-53.45,116.45-53.45c68.7,0,127,45.19,146.85,107.38c5.95,3.19,12.74,5.6,20.3,6.63
		C536.75,565.32,468.8,508.94,387.75,508.94z"/>
	<path class="st0" d="M387.75,554.59c-36.82,0-69.91,15.92-93.04,41.13c5.15,2.98,10.48,5.97,15.92,9.09
		c19.68-19.92,46.97-32.29,77.12-32.29c59.83,0,108.5,48.67,108.5,108.51c0,13.06-2.44,25.54-6.69,37.14l19.06-0.15
		c3.59-11.71,5.55-24.12,5.55-36.99C514.17,611.3,457.47,554.59,387.75,554.59z"/>
	<path class="st0" d="M387.75,600.25c-27.59,0-51.96,13.92-66.54,35.08c3.39,5.37,7.45,10.31,11.94,14.68
		c10.82-18.99,31.22-31.84,54.6-31.84c34.66,0,62.85,28.19,62.85,62.85c0,14.08-4.71,27.05-12.57,37.54l21.25-0.16
		c5.87-11.19,9.24-23.89,9.24-37.38C468.52,636.48,432.29,600.25,387.75,600.25z"/>
	<path class="st0" d="M387.75,645.9c-13.71,0-25.48,7.97-31.26,19.46c5.03,1.9,10.1,2.96,14.98,2.96c1.44,0,3.06,0.02,4.75,0.04
		c3.06-2.79,7.08-4.54,11.53-4.54c4.23,0,8.05,1.59,11.05,4.14c6.79-0.46,13.67-1.39,19.91-3.15
		C412.83,653.62,401.23,645.9,387.75,645.9z"/>
</g>
</svg>
